<svg id="Layer_1" data-name="Layer 1" xmlns="http://www.w3.org/2000/svg" viewBox="0 0 2048 512"><defs><style>.primary{fill:#c2a025}text{font-size:200px}</style><mask id="bottom-stroke"><path stroke="#fff" fill="none" stroke-width="60" stroke-dasharray="1000" stroke-dashoffset="1000" d="M370 80L230 420H20l80-90"><animate id="bottom" attributeName="stroke-dashoffset" from="1000" to="0" dur="700ms" fill="freeze"/></path></mask><mask id="top-stroke"><path stroke="#fff" stroke-width="50" fill="none" stroke-dasharray="1000" stroke-dashoffset="1000" d="M512 70H150l-85 70 15 80h120l50-70-80-30"><animate id="top" attributeName="stroke-dashoffset" from="1000" to="0" dur="700ms" begin="bottom.end-200ms" fill="freeze"/></path></mask></defs><g transform="translate(768)"><path class="primary" mask="url(#bottom-stroke)" d="M102.08 344.18a209.24 209.24 0 0 0-20.6 4.82 102.41 102.41 0 0 0-19.21 7.72c-5.89 3.28-11.38 7.29-14.87 12.38a21.58 21.58 0 0 0-3.85 16.54 28.43 28.43 0 0 0 2.91 8.36 42.81 42.81 0 0 0 5.24 7.59 61.33 61.33 0 0 0 14.67 12.12 77 77 0 0 0 27.09 9.84c1.59.25 3.18.47 4.77.63l5.18.49c14 1.24 27.87 2.27 41.55 2.17s27.1-1.36 39.76-4.72a106.4 106.4 0 0 0 35.06-16.41 132.77 132.77 0 0 0 15.14-12.51l3.55-3.48 3.44-3.6 3.35-3.73.83-.93.65-.82c.43-.57.9-1.06 1.31-1.67a83.53 83.53 0 0 0 9-16.28 187.66 187.66 0 0 0 6.85-18.78c2-6.47 3.81-13.1 5.51-19.8s3.31-13.47 4.83-20.29c6-27.3 11.31-55.14 17.64-83 3.24-13.92 6.71-27.87 10.79-41.78a332.52 332.52 0 0 1 14.88-41.33 196 196 0 0 1 10.26-20.09c1.94-3.28 4-6.53 6.3-9.67.54-.8 1.17-1.56 1.78-2.33s1.22-1.52 1.84-2.28c1.28-1.49 2.64-2.94 4-4.36a60.08 60.08 0 0 1 19.93-13.47c7.58-3 15.91-4.08 23.57-2.25a1.46 1.46 0 0 1 1.04 1.74 1.42 1.42 0 0 1-.6.86 100.93 100.93 0 0 0-15.9 12.67 127.12 127.12 0 0 0-12 14.33l-2.7 3.86c-.84 1.35-1.79 2.6-2.63 4-1.73 2.68-3.47 5.4-5.05 8.26a173.88 173.88 0 0 0-8.63 17.9 339 339 0 0 0-13.07 38.79c-3.75 13.3-7 26.87-10 40.54s-6 27.46-8.87 41.31-5.89 27.76-9.22 41.71-6.94 27.93-11.68 41.89A213.52 213.52 0 0 1 277.7 372c-1.58 3.47-3.38 6.93-5.33 10.35a90.67 90.67 0 0 1-6.84 10.1c-.61.83-1.36 1.63-2 2.44l-1.05 1.21-1 1-3.88 4.05-4 3.94c-1.36 1.29-2.77 2.55-4.15 3.82a152.53 152.53 0 0 1-18 13.92 130.25 130.25 0 0 1-20.27 10.87 127.43 127.43 0 0 1-21.85 7c-14.87 3.37-29.9 4.15-44.51 3.72a432.23 432.23 0 0 1-43.12-3.85l-5.36-.73c-1.92-.28-3.82-.62-5.72-1a88.84 88.84 0 0 1-11.14-3.12 86.39 86.39 0 0 1-20.57-10.43A70.87 70.87 0 0 1 42 409.26a51.92 51.92 0 0 1-6-10.38 38.83 38.83 0 0 1-3-11.95c-.11-1-.09-2.11-.11-3.16s.07-2.11.22-3.16a30.24 30.24 0 0 1 4-11.86 33.62 33.62 0 0 1 3.6-4.92 40.81 40.81 0 0 1 8.92-7.57 57.69 57.69 0 0 1 10-5.09 87 87 0 0 1 10.47-3.32 100 100 0 0 1 10.61-2.11 153.31 153.31 0 0 1 21.37-1.56z"/><path class="primary" mask="url(#top-stroke)" d="M497.07 53.88a39.21 39.21 0 0 1-9 9.07 81.76 81.76 0 0 1-11 6.73A148.27 148.27 0 0 1 453 79a316.66 316.66 0 0 1-50.18 10.21c-16.9 2.17-33.88 3.43-50.87 3.94-4.25.13-8.5.24-12.75.28s-8.5 0-12.75 0c-8.5-.06-17-.35-25.51-.77s-17-1-25.52-1.74-17-1.68-25.59-3a231.82 231.82 0 0 1-25.9-5.19l-6-1.69c-1.92-.51-3.84-1-5.77-1.45-3.86-.91-7.73-1.67-11.6-2.33-15.48-2.55-31.2-2.76-45.95.55a83 83 0 0 0-62.95 57.39 96.37 96.37 0 0 0-2.91 45.06 75.42 75.42 0 0 0 6.52 21.15 39.9 39.9 0 0 0 13.1 15.39 42.7 42.7 0 0 0 19.5 6.76 79.37 79.37 0 0 0 22.59-1.08 129.31 129.31 0 0 0 22.74-6.4c1.84-.7 3.72-1.44 5.5-2.2s3.33-1.54 5-2.42a72.53 72.53 0 0 0 9.47-6.23 94.9 94.9 0 0 0 16.47-16.44 90.7 90.7 0 0 0 12-20 59.13 59.13 0 0 0 3.55-10.79 35.67 35.67 0 0 0 .8-10.86 20.19 20.19 0 0 0-3.28-9.5 19.51 19.51 0 0 0-8.07-6.44 30 30 0 0 0-11-2.42 42.48 42.48 0 0 0-11.8 1.33 48.36 48.36 0 0 0-11.37 4.39 41.62 41.62 0 0 0-10 7.36 39.34 39.34 0 0 1 8.82-9.22 50.49 50.49 0 0 1 11.28-6.46 46.88 46.88 0 0 1 12.89-3.21 33.8 33.8 0 0 1 13.76 1.35 27.52 27.52 0 0 1 12.3 7.84 26.51 26.51 0 0 1 4.13 6.36 31.56 31.56 0 0 1 2.27 7.08 44.27 44.27 0 0 1 .3 14.23 68.27 68.27 0 0 1-3.16 13.36 97.16 97.16 0 0 1-12.26 23.93 103.38 103.38 0 0 1-18.07 20.05 82.67 82.67 0 0 1-11.24 8c-2 1.19-4.07 2.32-6.23 3.33s-4 1.85-6.1 2.69a145 145 0 0 1-25.48 7.95 96.45 96.45 0 0 1-27.51 2c-2.37-.19-4.75-.52-7.13-.94a69.7 69.7 0 0 1-7.12-1.75 65.53 65.53 0 0 1-7-2.65 56.79 56.79 0 0 1-6.63-3.6 55 55 0 0 1-11.5-9.77 63.58 63.58 0 0 1-8.46-12.11 91.8 91.8 0 0 1-9.08-26.54 116.15 116.15 0 0 1 2.46-54.61A105 105 0 0 1 100.67 82a102.32 102.32 0 0 1 23-16 109.13 109.13 0 0 1 26.24-9.34c18.1-4 36.59-3.51 54.17-.54 4.41.76 8.76 1.69 13.07 2.76 2.15.53 4.29 1.11 6.42 1.71l6.08 1.79a211.49 211.49 0 0 0 23.39 5c16.1 2.62 32.57 4.41 49.08 5.61 8.26.6 16.54 1 24.82 1.42q6.21.28 12.43.45c4.15.14 8.3.26 12.44.33 16.59.29 33.2.25 49.76-.42A443.08 443.08 0 0 0 451 70.42a176.46 176.46 0 0 0 24.12-5.33 76.46 76.46 0 0 0 11.52-4.42 42 42 0 0 0 10.43-6.79z"/><animateTransform id="slide" attributeName="transform" type="translateX" from="768" to="30" dur="400ms" begin="top.end" fill="freeze"/></g></svg>