<svg version="1" xmlns="http://www.w3.org/2000/svg" width="933.333" height="933.333" viewBox="0 0 700.000000 700.000000"><path d="M233.7 73.6c-.1.1-3.6.5-7.7.8-10.4.9-14.6 1.6-25 4.1-.3.1-2.1.5-4 .9-8.1 1.8-27.2 10-37 15.9-23.8 14.3-43.8 37.3-55.5 63.7-5.2 12-9.7 27.6-11.1 39.5-.3 2.7-.8 6.3-1 8-.5 3.6-.5 25 0 28.5.2 1.4.7 5.4 1.1 9 .5 3.6.9 6.7 1 7 .1.3.4 1.8.8 3.5.4 1.6.9 3.9 1.1 5 1.7 9.1 9.7 27.3 16 36.5 6.1 9 16 18.1 25.6 23.6 4.5 2.6 15.9 6.9 23 8.6 5.8 1.4 32.4 1.8 39.6.6 26.2-4.4 55.2-15.7 71-27.7 31-23.4 53.1-63.5 51.7-93.9-.3-7.8-3.2-17.8-6.6-22.7-14-20.3-44.7-22-70.2-4-5.6 4-7.7 6-11.5 11-1.4 2-1.4 1.9 1 0 1.3-1.1 3.3-2.8 4.3-3.7 1.1-.9 4.8-3 8.3-4.7 19.3-9.2 40.1-9 51.2.5 7 6 8.7 10.2 8.7 21.9 0 8.5-.4 11.2-2.9 18-8 22.5-23.5 43.4-43.1 58.2-12 9.1-32.2 17.2-53.7 21.8-9.5 2-13.6 2.3-25.8 2-9.4-.2-16.1-.8-19.1-1.8-7.4-2.4-15-6.6-20.5-11.3-17.1-14.5-26.6-48.4-23.1-82.4 2.5-25 13.2-50.4 28-66.7 7.5-8.2 9.8-10.3 22.8-20.2 4.1-3.2 19.8-10.7 27.1-13.1 3.7-1.2 11.8-3.2 18-4.4 9.7-2 13.8-2.2 29.3-2 9.9.2 19.6.5 21.5.8 9.4 1.5 25.7 5 35.9 7.7 6.3 1.7 12.4 3.3 13.5 3.5 1.2.2 4.1.8 6.6 1.4 6.5 1.4 14.9 2.8 27.5 4.5 7.8 1 20.1 2.3 29.5 3 3.6.3 8.5.7 11 1 11.4 1.1 35.7 1.9 58.7 1.9 13.9.1 25.3.1 25.3.1s-3.6 3.7-7.9 8.2c-22 22.7-41 63.9-57.7 125-3 11.1-5.7 21-5.9 22-.2 1-1.2 5.6-2.3 10.3-1.8 7.5-12.8 57.3-13.8 62.5-.2 1.1-.8 4.3-1.4 7.1-.6 2.8-1.3 6.3-1.6 7.9-.3 1.6-1.2 6.1-2 10-.9 3.8-1.8 8.1-2 9.5-.3 1.4-1.9 8.6-3.5 16-1.7 7.4-3.2 14.6-3.5 15.9-.3 1.3-1.2 5.1-2 8.5-.8 3.4-1.6 6.8-1.8 7.6-11.2 46-22 71.4-37.8 88.6-32.7 35.4-67 52.4-113.3 56.1-14.9 1.1-47.8.6-65.5-1.2-1.9-.1-7.1-.6-11.6-.9-25.7-2.1-45.4-9.5-61.9-23.3-14.3-12-20.9-24.3-20-37.4 1.2-19.5 22-35 59.9-44.8 6.5-1.7 12.6-3.1 13.6-3.1 1.1 0 2.1-.4 2.4-.9.3-.5-.9-.7-2.7-.5-1.7.1-6.1.5-9.7.9-7.7.6-14.6 1.4-17.5 1.9-38.4 7.3-60.3 26.1-60.3 52 .1 23.6 17.2 46.7 46.8 62.9 5.7 3.1 16.6 7.8 19.5 8.3.6.1 3.5.9 6.5 1.8 5.4 1.6 12.8 3 22.5 4.1 2.8.3 6.6.8 8.5 1.1 1.9.3 5.8.7 8.5 1 2.8.3 6.4.7 8.2.9 8.1 1 28.2 1.9 41.8 1.9 14.1 0 33-1 34.4-1.8.3-.2 2.9-.6 5.8-1 13.7-1.6 37.4-9.4 52.8-17.3 23.5-12.1 51.2-35.3 66.3-55.8 9.9-13.4 22-42.3 31.1-74 5-17.7 17.8-71.4 20.7-87 .2-1.1.8-4.3 1.4-7 .6-2.8 1.3-6.1 1.5-7.5.3-1.4 1.9-8.8 3.6-16.5 1.7-7.7 3.2-14.9 3.5-16 .3-1.6 2.8-13.2 6.9-31.5 5.1-23 19.1-71.1 23.5-80.5.5-1.1 2.3-5.6 4.1-10 7-18.1 20-40.3 32.8-55.9 6.8-8.3 19.3-20.2 21.3-20.3 3.7-.1 20.4-1.5 20.8-1.8.3-.2 3.9-.6 8-1 4.1-.3 8.2-.8 9-1 .8-.2 3.8-.7 6.5-1 4.7-.5 6.4-.8 12.5-2 1.4-.2 4.1-.7 6-1 1.9-.3 4.2-.8 5-1 .8-.2 2.6-.6 4-.9 11.4-2 35.4-8.8 47-13.3 19.5-7.6 37.5-18.8 41.2-25.6.8-1.6.4-1.5-2.3.6-11.3 8.5-37.9 16.5-67.4 20.1-10.9 1.4-15.8 1.9-28.3 3.1-29 2.7-116.7 2.7-153.7 0-2.2-.1-8.9-.6-15-1-6-.4-11.8-.9-12.8-1.1-.9-.1-5.4-.6-10-.9-4.5-.3-9.3-.8-10.7-1-1.4-.3-4.3-.7-6.5-1-10.3-1.2-24.5-3.4-39-6.1-4.6-.8-22.1-5.3-24.8-6.3-2.9-1.1-23.7-5.8-29.2-6.6-2.2-.3-5.1-.8-6.5-1-7-1.2-36.4-2.7-37.3-1.9z"/></svg>