<?xml version="1.0" standalone="no"?><!-- Generator: Gravit.io --><svg xmlns="http://www.w3.org/2000/svg" xmlns:xlink="http://www.w3.org/1999/xlink" style="isolation:isolate" viewBox="0 0 367 397.999" width="367" height="397.999"><defs><clipPath id="_clipPath_4QkeaErtggpGfbLDYTBdzUJLOoa7PGfP"><rect width="367" height="397.999"/></clipPath></defs><g clip-path="url(#_clipPath_4QkeaErtggpGfbLDYTBdzUJLOoa7PGfP)"><rect x="0" y="0.499" width="229" height="84" transform="matrix(1,0,0,1,0,0)" fill="rgb(129,156,169)"/><rect x="0" y="229.499" width="229" height="84" transform="matrix(1,0,0,1,0,0)" fill="rgb(196,60,0)"/><rect x="0" y="84.499" width="229" height="84" transform="matrix(1,0,0,1,0,0)" fill="rgb(84,110,122)"/><rect x="0" y="313.499" width="229" height="84" transform="matrix(1,0,0,1,0,0)" fill="rgb(255,109,0)"/><g transform="matrix(1,0,0,1,0,0.499)"><text transform="matrix(1,0,0,1,63.549,49.759)" style="font-family:&quot;Open Sans&quot;;font-weight:400;font-size:20px;font-style:normal;fill:#000000;stroke:none;">View Layer</text></g><g transform="matrix(1,0,0,1,0,168.499)"><text transform="matrix(1,0,0,1,39.555,30.259)" style="font-family:&quot;Open Sans&quot;;font-weight:400;font-size:20px;font-style:normal;fill:#000000;stroke:none;">Transport Layer</text></g><g transform="matrix(1,0,0,1,0,229.499)"><text transform="matrix(1,0,0,1,55.536,49.759)" style="font-family:&quot;Open Sans&quot;;font-weight:400;font-size:20px;font-style:normal;fill:#ffffff;stroke:none;">Server Layer</text></g><g transform="matrix(1,0,0,1,0,84.499)"><text transform="matrix(1,0,0,1,40.238,49.759)" style="font-family:&quot;Open Sans&quot;;font-weight:400;font-size:20px;font-style:normal;fill:#ffffff;stroke:none;">App Logic Layer</text></g><g transform="matrix(1,0,0,1,0,314.499)"><text transform="matrix(1,0,0,1,41.405,49.259)" style="font-family:&quot;Open Sans&quot;;font-weight:400;font-size:20px;font-style:normal;fill:#000000;stroke:none;">Database Layer</text></g><g transform="matrix(0,1,-1,0,276,0.499)"><text transform="matrix(1,0,0,1,10.622,16.033)" style="font-family:&quot;Open Sans&quot;;font-weight:400;font-size:15px;font-style:normal;fill:#000000;stroke:none;">Front-End Developer</text></g><g transform="matrix(0,1,-1,0,367,0.499)"><text transform="matrix(1,0,0,1,65.826,29.928)" style="font-family:&quot;Open Sans&quot;;font-weight:400;font-size:28px;font-style:normal;fill:#000000;stroke:none;">Full Stack Developer</text></g><g transform="matrix(0,1,-1,0,276,229.499)"><text transform="matrix(1,0,0,1,12.797,16.033)" style="font-family:&quot;Open Sans&quot;;font-weight:400;font-size:15px;font-style:normal;fill:#000000;stroke:none;">Back-End Developer</text></g><line x1="248" y1="0.499" x2="248" y2="168.499" vector-effect="non-scaling-stroke" stroke-width="1" stroke="rgb(0,0,0)" stroke-linejoin="miter" stroke-linecap="square" stroke-miterlimit="3"/><line x1="318" y1="0.499" x2="318" y2="397.499" vector-effect="non-scaling-stroke" stroke-width="1" stroke="rgb(0,0,0)" stroke-linejoin="miter" stroke-linecap="square" stroke-miterlimit="3"/><line x1="248" y1="229.499" x2="248" y2="397.499" vector-effect="non-scaling-stroke" stroke-width="1" stroke="rgb(0,0,0)" stroke-linejoin="miter" stroke-linecap="square" stroke-miterlimit="3"/><g transform="matrix(1,0,0,1,0,57.499)"><text transform="matrix(1,0,0,1,80.271,12.826)" style="font-family:&quot;Open Sans&quot;;font-weight:400;font-size:12px;font-style:normal;fill:#29434e;stroke:none;">(HTML, CSS)</text></g><g transform="matrix(1,0,0,1,0,370.499)"><text transform="matrix(1,0,0,1,82.053,12.826)" style="font-family:&quot;Open Sans&quot;;font-weight:400;font-size:12px;font-style:normal;fill:#3b3b3b;stroke:none;">(MongoDB)</text></g><g transform="matrix(1,0,0,1,0,203.999)"><text transform="matrix(1,0,0,1,70.665,12.826)" style="font-family:&quot;Open Sans&quot;;font-weight:400;font-size:12px;font-style:normal;fill:#29434e;stroke:none;">(HTTP, SSL, WS)</text></g><g transform="matrix(1,0,0,1,0,141.499)"><text transform="matrix(1,0,0,1,83.187,12.826)" style="font-family:&quot;Open Sans&quot;;font-weight:400;font-size:12px;font-style:normal;fill:#c8c8c8;stroke:none;">(Javascript)</text></g><g transform="matrix(1,0,0,1,0,287.499)"><text transform="matrix(1,0,0,1,89.863,12.826)" style="font-family:&quot;Open Sans&quot;;font-weight:400;font-size:12px;font-style:normal;fill:#c8c8c8;stroke:none;">(NodeJS)</text></g></g></svg>